<mxfile host="app.diagrams.net" modified="2021-05-21T07:21:59.245Z" agent="5.0 (Windows)" etag="VlUeCfeuco2THW05tmlj" version="14.6.13" type="github">
  <diagram id="x_EGCtdsNAIoLuTjenAh" name="Page-1">
    <mxGraphModel dx="726" dy="1157" grid="1" gridSize="10" guides="1" tooltips="1" connect="1" arrows="1" fold="1" page="1" pageScale="1" pageWidth="827" pageHeight="1169" math="0" shadow="0">
      <root>
        <mxCell id="0" />
        <mxCell id="FpdOjQ_UmzUaRlVC9WjG-2" value="Formes" style="" parent="0" />
        <mxCell id="KOBFgpsfJj8ijsTa2FeM-341" value="" style="rounded=0;whiteSpace=wrap;html=1;strokeColor=#353B45;align=left;fillColor=none;" parent="FpdOjQ_UmzUaRlVC9WjG-2" vertex="1">
          <mxGeometry x="46.34" y="653" width="253.88" height="122.5" as="geometry" />
        </mxCell>
        <mxCell id="KOBFgpsfJj8ijsTa2FeM-282" value="" style="group" parent="FpdOjQ_UmzUaRlVC9WjG-2" vertex="1" connectable="0">
          <mxGeometry x="46.339999999999996" y="363.25" width="181.25" height="133.5" as="geometry" />
        </mxCell>
        <mxCell id="KOBFgpsfJj8ijsTa2FeM-257" value="" style="shape=process;whiteSpace=wrap;html=1;backgroundOutline=1;sketch=0;gradientDirection=east;gradientColor=#E6E6E6;" parent="KOBFgpsfJj8ijsTa2FeM-282" vertex="1">
          <mxGeometry width="181.25" height="133.5" as="geometry" />
        </mxCell>
        <mxCell id="KOBFgpsfJj8ijsTa2FeM-274" value="" style="endArrow=none;dashed=1;html=1;dashPattern=1 3;strokeWidth=2;entryX=0;entryY=0.5;entryDx=0;entryDy=0;exitX=1.002;exitY=0.508;exitDx=0;exitDy=0;exitPerimeter=0;" parent="KOBFgpsfJj8ijsTa2FeM-282" source="KOBFgpsfJj8ijsTa2FeM-257" target="KOBFgpsfJj8ijsTa2FeM-257" edge="1">
          <mxGeometry width="50" height="50" relative="1" as="geometry">
            <mxPoint x="280" y="76.75" as="sourcePoint" />
            <mxPoint x="330" y="26.75" as="targetPoint" />
          </mxGeometry>
        </mxCell>
        <mxCell id="KOBFgpsfJj8ijsTa2FeM-275" value="&lt;div align=&quot;left&quot;&gt;OD Matrix&lt;br&gt;&lt;/div&gt;" style="text;html=1;strokeColor=none;fillColor=none;align=center;verticalAlign=middle;whiteSpace=wrap;rounded=0;dashed=1;fontStyle=1" parent="KOBFgpsfJj8ijsTa2FeM-282" vertex="1">
          <mxGeometry x="1.1200000000000045" width="102" height="20" as="geometry" />
        </mxCell>
        <mxCell id="KOBFgpsfJj8ijsTa2FeM-281" value="" style="group" parent="KOBFgpsfJj8ijsTa2FeM-282" vertex="1" connectable="0">
          <mxGeometry x="29" y="79.75" width="121.75" height="41" as="geometry" />
        </mxCell>
        <mxCell id="WmJDCKHygcUtH_FTsqzf-37" value="Undirected, links" style="text;html=1;strokeColor=none;fillColor=none;align=center;verticalAlign=middle;whiteSpace=wrap;rounded=0;dashed=1;" parent="KOBFgpsfJj8ijsTa2FeM-281" vertex="1">
          <mxGeometry width="121.75" height="20" as="geometry" />
        </mxCell>
        <mxCell id="KOBFgpsfJj8ijsTa2FeM-284" value="" style="ellipse;whiteSpace=wrap;html=1;aspect=fixed;fontColor=#000000;strokeColor=#C25502;fillColor=#d95f02;" parent="KOBFgpsfJj8ijsTa2FeM-282" vertex="1">
          <mxGeometry x="45.120000000000005" y="106.75" width="14" height="14" as="geometry" />
        </mxCell>
        <mxCell id="KOBFgpsfJj8ijsTa2FeM-271" value="" style="ellipse;whiteSpace=wrap;html=1;aspect=fixed;fontColor=#ffffff;fillColor=#e7298a;strokeColor=#BA216F;" parent="KOBFgpsfJj8ijsTa2FeM-282" vertex="1">
          <mxGeometry x="62" y="106.75" width="14" height="14" as="geometry" />
        </mxCell>
        <mxCell id="KOBFgpsfJj8ijsTa2FeM-273" value="" style="ellipse;whiteSpace=wrap;html=1;aspect=fixed;fontColor=#ffffff;fillColor=#1b9e77;strokeColor=#137055;" parent="KOBFgpsfJj8ijsTa2FeM-282" vertex="1">
          <mxGeometry x="78" y="106.75" width="14" height="14" as="geometry" />
        </mxCell>
        <mxCell id="KOBFgpsfJj8ijsTa2FeM-183" value="" style="ellipse;whiteSpace=wrap;html=1;aspect=fixed;fontColor=#000000;strokeColor=#C25502;fillColor=#d95f02;" parent="KOBFgpsfJj8ijsTa2FeM-282" vertex="1">
          <mxGeometry x="45.56" y="48.5" width="14" height="14" as="geometry" />
        </mxCell>
        <mxCell id="WmJDCKHygcUtH_FTsqzf-36" value="Directed, flows" style="text;html=1;strokeColor=none;fillColor=none;align=center;verticalAlign=middle;whiteSpace=wrap;rounded=0;dashed=1;" parent="KOBFgpsfJj8ijsTa2FeM-282" vertex="1">
          <mxGeometry x="40.5" y="20" width="87.75" height="20" as="geometry" />
        </mxCell>
        <mxCell id="KOBFgpsfJj8ijsTa2FeM-208" value="" style="ellipse;whiteSpace=wrap;html=1;aspect=fixed;strokeColor=#66619C;fontColor=#ffffff;fillColor=#7570b3;" parent="KOBFgpsfJj8ijsTa2FeM-282" vertex="1">
          <mxGeometry x="63" y="48.5" width="14" height="14" as="geometry" />
        </mxCell>
        <mxCell id="KOBFgpsfJj8ijsTa2FeM-362" value="" style="rounded=0;whiteSpace=wrap;html=1;strokeColor=#353B45;align=left;fillColor=none;" parent="FpdOjQ_UmzUaRlVC9WjG-2" vertex="1">
          <mxGeometry x="46.339999999999996" y="810" width="609.88" height="132" as="geometry" />
        </mxCell>
        <mxCell id="KOBFgpsfJj8ijsTa2FeM-374" value="Filter / Order" style="rhombus;whiteSpace=wrap;html=1;sketch=0;" parent="FpdOjQ_UmzUaRlVC9WjG-2" vertex="1">
          <mxGeometry x="54.34" y="848" width="110" height="80" as="geometry" />
        </mxCell>
        <mxCell id="KOBFgpsfJj8ijsTa2FeM-342" value="" style="rounded=0;whiteSpace=wrap;html=1;strokeColor=#353B45;align=left;fillColor=none;" parent="FpdOjQ_UmzUaRlVC9WjG-2" vertex="1">
          <mxGeometry x="46.34" y="991.5" width="361" height="122.5" as="geometry" />
        </mxCell>
        <mxCell id="KOBFgpsfJj8ijsTa2FeM-354" value="" style="ellipse;whiteSpace=wrap;html=1;aspect=fixed;fontColor=#ffffff;fillColor=#535C6C;strokeColor=#353B45;" parent="FpdOjQ_UmzUaRlVC9WjG-2" vertex="1">
          <mxGeometry x="204.22" y="1024.25" width="14" height="14" as="geometry" />
        </mxCell>
        <mxCell id="KOBFgpsfJj8ijsTa2FeM-355" value="" style="ellipse;whiteSpace=wrap;html=1;aspect=fixed;strokeColor=#66619C;fontColor=#ffffff;fillColor=#7570b3;" parent="FpdOjQ_UmzUaRlVC9WjG-2" vertex="1">
          <mxGeometry x="187.09" y="1024.25" width="14" height="14" as="geometry" />
        </mxCell>
        <mxCell id="KOBFgpsfJj8ijsTa2FeM-319" value="" style="ellipse;whiteSpace=wrap;html=1;aspect=fixed;fontColor=#ffffff;fillColor=#e7298a;strokeColor=#BA216F;" parent="FpdOjQ_UmzUaRlVC9WjG-2" vertex="1">
          <mxGeometry x="203.22" y="687.5" width="14" height="14" as="geometry" />
        </mxCell>
        <mxCell id="KOBFgpsfJj8ijsTa2FeM-386" value="&lt;div&gt;Save project&lt;/div&gt;&lt;div&gt;parameters&lt;/div&gt;" style="shape=document;whiteSpace=wrap;html=1;boundedLbl=1;sketch=0;fillColor=#E6E6E6;fontStyle=1;strokeWidth=2;" parent="FpdOjQ_UmzUaRlVC9WjG-2" vertex="1">
          <mxGeometry x="300.21999999999997" y="1046" width="90" height="60" as="geometry" />
        </mxCell>
        <mxCell id="KOBFgpsfJj8ijsTa2FeM-289" value="" style="ellipse;whiteSpace=wrap;html=1;aspect=fixed;fontColor=#000000;strokeColor=#C25502;fillColor=#d95f02;" parent="FpdOjQ_UmzUaRlVC9WjG-2" vertex="1">
          <mxGeometry x="51.22000000000001" y="531.5" width="14" height="14" as="geometry" />
        </mxCell>
        <mxCell id="KOBFgpsfJj8ijsTa2FeM-256" value="" style="ellipse;whiteSpace=wrap;html=1;aspect=fixed;fontColor=#ffffff;fillColor=#e7298a;strokeColor=#BA216F;" parent="FpdOjQ_UmzUaRlVC9WjG-2" vertex="1">
          <mxGeometry x="314.78000000000003" y="40" width="14" height="14" as="geometry" />
        </mxCell>
        <mxCell id="KOBFgpsfJj8ijsTa2FeM-251" value="" style="ellipse;whiteSpace=wrap;html=1;aspect=fixed;fontColor=#ffffff;fillColor=#7570b3;strokeColor=#66619C;" parent="FpdOjQ_UmzUaRlVC9WjG-2" vertex="1">
          <mxGeometry x="297.78000000000003" y="40" width="14" height="14" as="geometry" />
        </mxCell>
        <mxCell id="KOBFgpsfJj8ijsTa2FeM-196" value="" style="ellipse;whiteSpace=wrap;html=1;aspect=fixed;strokeColor=#001DBC;fontColor=#ffffff;fillColor=#1a70a7;" parent="FpdOjQ_UmzUaRlVC9WjG-2" vertex="1">
          <mxGeometry x="426.52000000000004" y="267" width="14" height="14" as="geometry" />
        </mxCell>
        <mxCell id="KOBFgpsfJj8ijsTa2FeM-193" value="" style="ellipse;whiteSpace=wrap;html=1;aspect=fixed;fontColor=#ffffff;fillColor=#1b9e77;strokeColor=#137055;" parent="FpdOjQ_UmzUaRlVC9WjG-2" vertex="1">
          <mxGeometry x="460.15000000000003" y="267" width="14" height="14" as="geometry" />
        </mxCell>
        <mxCell id="KOBFgpsfJj8ijsTa2FeM-189" value="" style="ellipse;whiteSpace=wrap;html=1;aspect=fixed;fontColor=#000000;strokeColor=#C25502;fillColor=#d95f02;" parent="FpdOjQ_UmzUaRlVC9WjG-2" vertex="1">
          <mxGeometry x="300.2200000000001" y="1024.25" width="14" height="14" as="geometry" />
        </mxCell>
        <mxCell id="KOBFgpsfJj8ijsTa2FeM-186" value="" style="ellipse;whiteSpace=wrap;html=1;aspect=fixed;fontColor=#000000;strokeColor=#C25502;fillColor=#d95f02;" parent="FpdOjQ_UmzUaRlVC9WjG-2" vertex="1">
          <mxGeometry x="257.63" y="531.5" width="14" height="14" as="geometry" />
        </mxCell>
        <mxCell id="KOBFgpsfJj8ijsTa2FeM-184" value="" style="ellipse;whiteSpace=wrap;html=1;aspect=fixed;fontColor=#000000;strokeColor=#C25502;fillColor=#d95f02;" parent="FpdOjQ_UmzUaRlVC9WjG-2" vertex="1">
          <mxGeometry x="287.75" y="385" width="14" height="14" as="geometry" />
        </mxCell>
        <mxCell id="KOBFgpsfJj8ijsTa2FeM-185" value="" style="ellipse;whiteSpace=wrap;html=1;aspect=fixed;fontColor=#000000;strokeColor=#C25502;fillColor=#d95f02;" parent="FpdOjQ_UmzUaRlVC9WjG-2" vertex="1">
          <mxGeometry x="446.15000000000003" y="385" width="14" height="14" as="geometry" />
        </mxCell>
        <mxCell id="KOBFgpsfJj8ijsTa2FeM-178" value="" style="ellipse;whiteSpace=wrap;html=1;aspect=fixed;strokeColor=#C25502;fillColor=#d95f02;" parent="FpdOjQ_UmzUaRlVC9WjG-2" vertex="1">
          <mxGeometry x="163.02" y="194" width="14" height="14" as="geometry" />
        </mxCell>
        <mxCell id="KOBFgpsfJj8ijsTa2FeM-173" value="" style="ellipse;whiteSpace=wrap;html=1;aspect=fixed;fontColor=#ffffff;strokeColor=#473F2D;fillColor=#fef1dd;" parent="FpdOjQ_UmzUaRlVC9WjG-2" vertex="1">
          <mxGeometry x="414.15000000000003" y="198" width="14" height="14" as="geometry" />
        </mxCell>
        <mxCell id="FpdOjQ_UmzUaRlVC9WjG-3" value="Source data" style="shape=document;whiteSpace=wrap;html=1;boundedLbl=1;sketch=0;fillColor=#E6E6E6;fontStyle=1;strokeWidth=2;" parent="FpdOjQ_UmzUaRlVC9WjG-2" vertex="1">
          <mxGeometry x="46.339999999999996" y="141" width="80" height="60" as="geometry" />
        </mxCell>
        <mxCell id="FpdOjQ_UmzUaRlVC9WjG-4" value="&lt;div&gt;Automatic&lt;/div&gt;&lt;div&gt;Geocoding&lt;/div&gt;" style="rhombus;whiteSpace=wrap;html=1;sketch=0;" parent="FpdOjQ_UmzUaRlVC9WjG-2" vertex="1">
          <mxGeometry x="267.27000000000004" y="131" width="110" height="80" as="geometry" />
        </mxCell>
        <mxCell id="KOBFgpsfJj8ijsTa2FeM-234" style="edgeStyle=orthogonalEdgeStyle;curved=1;orthogonalLoop=1;jettySize=auto;html=1;exitX=1;exitY=0.5;exitDx=0;exitDy=0;entryX=0;entryY=0.5;entryDx=0;entryDy=0;" parent="FpdOjQ_UmzUaRlVC9WjG-2" source="FpdOjQ_UmzUaRlVC9WjG-5" target="FpdOjQ_UmzUaRlVC9WjG-11" edge="1">
          <mxGeometry relative="1" as="geometry">
            <Array as="points">
              <mxPoint x="391.34000000000003" y="262" />
              <mxPoint x="391.34000000000003" y="287" />
            </Array>
          </mxGeometry>
        </mxCell>
        <mxCell id="FpdOjQ_UmzUaRlVC9WjG-5" value="Aggregation" style="rhombus;whiteSpace=wrap;html=1;sketch=0;" parent="FpdOjQ_UmzUaRlVC9WjG-2" vertex="1">
          <mxGeometry x="232.65" y="222" width="110" height="80" as="geometry" />
        </mxCell>
        <mxCell id="FpdOjQ_UmzUaRlVC9WjG-6" value="" style="endArrow=classic;html=1;entryX=0;entryY=0.5;entryDx=0;entryDy=0;startArrow=none;" parent="FpdOjQ_UmzUaRlVC9WjG-2" source="KOBFgpsfJj8ijsTa2FeM-239" target="FpdOjQ_UmzUaRlVC9WjG-5" edge="1">
          <mxGeometry width="50" height="50" relative="1" as="geometry">
            <mxPoint x="233.65" y="462" as="sourcePoint" />
            <mxPoint x="283.65000000000003" y="412" as="targetPoint" />
          </mxGeometry>
        </mxCell>
        <mxCell id="FpdOjQ_UmzUaRlVC9WjG-7" value="Aggregation function" style="shape=parallelogram;perimeter=parallelogramPerimeter;whiteSpace=wrap;html=1;fixedSize=1;sketch=0;" parent="FpdOjQ_UmzUaRlVC9WjG-2" vertex="1">
          <mxGeometry x="395.47" y="191" width="100" height="40" as="geometry" />
        </mxCell>
        <mxCell id="FpdOjQ_UmzUaRlVC9WjG-8" value="Yes" style="endArrow=classic;html=1;exitX=1;exitY=0.5;exitDx=0;exitDy=0;entryX=0;entryY=1;entryDx=0;entryDy=0;" parent="FpdOjQ_UmzUaRlVC9WjG-2" source="FpdOjQ_UmzUaRlVC9WjG-5" target="FpdOjQ_UmzUaRlVC9WjG-7" edge="1">
          <mxGeometry x="0.2133" y="10" width="50" height="50" relative="1" as="geometry">
            <mxPoint x="343.65000000000003" y="382" as="sourcePoint" />
            <mxPoint x="393.65000000000003" y="332" as="targetPoint" />
            <mxPoint as="offset" />
          </mxGeometry>
        </mxCell>
        <mxCell id="KOBFgpsfJj8ijsTa2FeM-266" style="edgeStyle=orthogonalEdgeStyle;curved=1;orthogonalLoop=1;jettySize=auto;html=1;exitX=0.5;exitY=1;exitDx=0;exitDy=0;entryX=0.5;entryY=0;entryDx=0;entryDy=0;endArrow=classic;endFill=1;" parent="FpdOjQ_UmzUaRlVC9WjG-2" source="FpdOjQ_UmzUaRlVC9WjG-11" target="KOBFgpsfJj8ijsTa2FeM-257" edge="1">
          <mxGeometry relative="1" as="geometry" />
        </mxCell>
        <mxCell id="FpdOjQ_UmzUaRlVC9WjG-11" value="Data" style="shape=process;whiteSpace=wrap;html=1;backgroundOutline=1;sketch=0;gradientDirection=east;gradientColor=#E6E6E6;" parent="FpdOjQ_UmzUaRlVC9WjG-2" vertex="1">
          <mxGeometry x="500.96000000000004" y="267" width="80" height="40" as="geometry" />
        </mxCell>
        <mxCell id="FpdOjQ_UmzUaRlVC9WjG-12" value="" style="endArrow=classic;html=1;exitX=0.809;exitY=1.025;exitDx=0;exitDy=0;entryX=0;entryY=0;entryDx=0;entryDy=0;exitPerimeter=0;" parent="FpdOjQ_UmzUaRlVC9WjG-2" source="FpdOjQ_UmzUaRlVC9WjG-7" target="FpdOjQ_UmzUaRlVC9WjG-11" edge="1">
          <mxGeometry width="50" height="50" relative="1" as="geometry">
            <mxPoint x="343.65000000000003" y="382" as="sourcePoint" />
            <mxPoint x="503.34000000000003" y="218" as="targetPoint" />
          </mxGeometry>
        </mxCell>
        <mxCell id="KOBFgpsfJj8ijsTa2FeM-267" style="edgeStyle=orthogonalEdgeStyle;curved=1;orthogonalLoop=1;jettySize=auto;html=1;exitX=1;exitY=0.5;exitDx=0;exitDy=0;endArrow=classic;endFill=1;entryX=0.5;entryY=0;entryDx=0;entryDy=0;" parent="FpdOjQ_UmzUaRlVC9WjG-2" source="FpdOjQ_UmzUaRlVC9WjG-21" target="KOBFgpsfJj8ijsTa2FeM-257" edge="1">
          <mxGeometry relative="1" as="geometry">
            <mxPoint x="379.22" y="340" as="targetPoint" />
            <Array as="points">
              <mxPoint x="646.22" y="107" />
              <mxPoint x="646.22" y="340" />
              <mxPoint x="137.22" y="340" />
            </Array>
          </mxGeometry>
        </mxCell>
        <mxCell id="FpdOjQ_UmzUaRlVC9WjG-21" value="Spatial&lt;br&gt;Data" style="shape=process;whiteSpace=wrap;html=1;backgroundOutline=1;sketch=0;gradientDirection=east;gradientColor=#E6E6E6;" parent="FpdOjQ_UmzUaRlVC9WjG-2" vertex="1">
          <mxGeometry x="504.65000000000003" y="87" width="80" height="40" as="geometry" />
        </mxCell>
        <mxCell id="FpdOjQ_UmzUaRlVC9WjG-25" value="Points" style="endArrow=classic;html=1;entryX=0;entryY=0.5;entryDx=0;entryDy=0;exitX=0.996;exitY=0.452;exitDx=0;exitDy=0;exitPerimeter=0;" parent="FpdOjQ_UmzUaRlVC9WjG-2" source="KOBFgpsfJj8ijsTa2FeM-224" target="FpdOjQ_UmzUaRlVC9WjG-21" edge="1">
          <mxGeometry width="50" height="50" relative="1" as="geometry">
            <mxPoint x="371.7699999999999" y="227" as="sourcePoint" />
            <mxPoint x="446.65000000000003" y="238" as="targetPoint" />
          </mxGeometry>
        </mxCell>
        <mxCell id="FpdOjQ_UmzUaRlVC9WjG-28" value="Compute&lt;br&gt;new values" style="rhombus;whiteSpace=wrap;html=1;sketch=0;" parent="FpdOjQ_UmzUaRlVC9WjG-2" vertex="1">
          <mxGeometry x="301.22" y="390" width="110" height="80" as="geometry" />
        </mxCell>
        <mxCell id="FpdOjQ_UmzUaRlVC9WjG-29" value="Compute&lt;br&gt;new stats" style="rhombus;whiteSpace=wrap;html=1;sketch=0;" parent="FpdOjQ_UmzUaRlVC9WjG-2" vertex="1">
          <mxGeometry x="441.22" y="390" width="110" height="80" as="geometry" />
        </mxCell>
        <mxCell id="FpdOjQ_UmzUaRlVC9WjG-31" value="" style="endArrow=classic;html=1;entryX=0;entryY=0.5;entryDx=0;entryDy=0;" parent="FpdOjQ_UmzUaRlVC9WjG-2" target="FpdOjQ_UmzUaRlVC9WjG-29" edge="1">
          <mxGeometry width="50" height="50" relative="1" as="geometry">
            <mxPoint x="412.22" y="430" as="sourcePoint" />
            <mxPoint x="436.22" y="430" as="targetPoint" />
          </mxGeometry>
        </mxCell>
        <mxCell id="FpdOjQ_UmzUaRlVC9WjG-32" value="" style="endArrow=classic;html=1;entryX=0.5;entryY=0;entryDx=0;entryDy=0;edgeStyle=orthogonalEdgeStyle;curved=1;exitX=0;exitY=1;exitDx=0;exitDy=0;" parent="FpdOjQ_UmzUaRlVC9WjG-2" source="FpdOjQ_UmzUaRlVC9WjG-29" target="FpdOjQ_UmzUaRlVC9WjG-33" edge="1">
          <mxGeometry width="50" height="50" relative="1" as="geometry">
            <mxPoint x="496.22" y="470" as="sourcePoint" />
            <mxPoint x="136.22" y="619.9999999999999" as="targetPoint" />
            <Array as="points">
              <mxPoint x="469.22" y="470" />
              <mxPoint x="270.22" y="470" />
              <mxPoint x="270.22" y="535" />
            </Array>
          </mxGeometry>
        </mxCell>
        <mxCell id="FpdOjQ_UmzUaRlVC9WjG-33" value="&lt;div&gt;Choose &lt;br&gt;&lt;/div&gt;&lt;div&gt;map type&lt;/div&gt;" style="rhombus;whiteSpace=wrap;html=1;sketch=0;align=center;" parent="FpdOjQ_UmzUaRlVC9WjG-2" vertex="1">
          <mxGeometry x="49.22" y="535" width="110" height="80" as="geometry" />
        </mxCell>
        <mxCell id="FpdOjQ_UmzUaRlVC9WjG-34" value="&lt;div&gt;Advanced&lt;/div&gt;&lt;div&gt;Graphic style&lt;/div&gt;" style="rhombus;whiteSpace=wrap;html=1;sketch=0;" parent="FpdOjQ_UmzUaRlVC9WjG-2" vertex="1">
          <mxGeometry x="252.9" y="535" width="110" height="80" as="geometry" />
        </mxCell>
        <mxCell id="FpdOjQ_UmzUaRlVC9WjG-35" value="" style="endArrow=classic;html=1;entryX=0;entryY=0.5;entryDx=0;entryDy=0;exitX=1;exitY=0.5;exitDx=0;exitDy=0;" parent="FpdOjQ_UmzUaRlVC9WjG-2" source="FpdOjQ_UmzUaRlVC9WjG-33" target="FpdOjQ_UmzUaRlVC9WjG-34" edge="1">
          <mxGeometry width="50" height="50" relative="1" as="geometry">
            <mxPoint x="266.22" y="561.9999999999999" as="sourcePoint" />
            <mxPoint x="296.22" y="561.9999999999999" as="targetPoint" />
          </mxGeometry>
        </mxCell>
        <mxCell id="FpdOjQ_UmzUaRlVC9WjG-36" value="Display" style="shape=or;whiteSpace=wrap;html=1;sketch=0;fillColor=#E6E6E6;fontStyle=1;strokeWidth=2;" parent="FpdOjQ_UmzUaRlVC9WjG-2" vertex="1">
          <mxGeometry x="474.15000000000003" y="531.5" width="60" height="80" as="geometry" />
        </mxCell>
        <mxCell id="FpdOjQ_UmzUaRlVC9WjG-37" value="" style="endArrow=classic;html=1;exitX=1;exitY=0.5;exitDx=0;exitDy=0;entryX=0;entryY=0.5;entryDx=0;entryDy=0;entryPerimeter=0;" parent="FpdOjQ_UmzUaRlVC9WjG-2" source="FpdOjQ_UmzUaRlVC9WjG-34" target="FpdOjQ_UmzUaRlVC9WjG-36" edge="1">
          <mxGeometry width="50" height="50" relative="1" as="geometry">
            <mxPoint x="346.22" y="517" as="sourcePoint" />
            <mxPoint x="396.22" y="467" as="targetPoint" />
          </mxGeometry>
        </mxCell>
        <mxCell id="FpdOjQ_UmzUaRlVC9WjG-38" value="" style="endArrow=classic;html=1;exitX=1;exitY=0.551;exitDx=0;exitDy=0;entryX=0;entryY=0.5;entryDx=0;entryDy=0;entryPerimeter=0;exitPerimeter=0;" parent="FpdOjQ_UmzUaRlVC9WjG-2" source="KOBFgpsfJj8ijsTa2FeM-341" target="FpdOjQ_UmzUaRlVC9WjG-36" edge="1">
          <mxGeometry width="50" height="50" relative="1" as="geometry">
            <mxPoint x="392.0899999999999" y="684.25" as="sourcePoint" />
            <mxPoint x="474.22" y="626.6599999999999" as="targetPoint" />
          </mxGeometry>
        </mxCell>
        <mxCell id="FpdOjQ_UmzUaRlVC9WjG-52" value="" style="endArrow=none;dashed=1;html=1;dashPattern=1 3;strokeWidth=2;edgeStyle=orthogonalEdgeStyle;curved=1;fontColor=#808080;strokeColor=#808080;" parent="FpdOjQ_UmzUaRlVC9WjG-2" edge="1">
          <mxGeometry width="50" height="50" relative="1" as="geometry">
            <mxPoint x="654.22" y="351" as="sourcePoint" />
            <mxPoint x="650" y="40" as="targetPoint" />
            <Array as="points">
              <mxPoint x="670" y="351" />
              <mxPoint x="670" y="40" />
            </Array>
          </mxGeometry>
        </mxCell>
        <mxCell id="FpdOjQ_UmzUaRlVC9WjG-54" value="(a) Data&lt;br&gt;pre-processing" style="text;html=1;strokeColor=none;align=left;verticalAlign=middle;whiteSpace=wrap;rounded=0;sketch=0;fontColor=#808080;fontStyle=2;fontSize=14;" parent="FpdOjQ_UmzUaRlVC9WjG-2" vertex="1">
          <mxGeometry x="689.22" y="181" width="109" height="20" as="geometry" />
        </mxCell>
        <mxCell id="FpdOjQ_UmzUaRlVC9WjG-55" value="" style="endArrow=none;dashed=1;html=1;dashPattern=1 3;strokeWidth=2;edgeStyle=orthogonalEdgeStyle;curved=1;fontColor=#808080;strokeColor=#808080;" parent="FpdOjQ_UmzUaRlVC9WjG-2" edge="1">
          <mxGeometry width="50" height="50" relative="1" as="geometry">
            <mxPoint x="646" y="480" as="sourcePoint" />
            <mxPoint x="646.22" y="350" as="targetPoint" />
            <Array as="points">
              <mxPoint x="676" y="480" />
              <mxPoint x="676" y="350" />
            </Array>
          </mxGeometry>
        </mxCell>
        <mxCell id="FpdOjQ_UmzUaRlVC9WjG-56" value="(b) Data&lt;br&gt;processing" style="text;html=1;strokeColor=none;align=left;verticalAlign=middle;whiteSpace=wrap;rounded=0;sketch=0;fontColor=#808080;fontStyle=2;fontSize=14;" parent="FpdOjQ_UmzUaRlVC9WjG-2" vertex="1">
          <mxGeometry x="684.22" y="390" width="119" height="20" as="geometry" />
        </mxCell>
        <mxCell id="FpdOjQ_UmzUaRlVC9WjG-58" value="(c) Mapping" style="text;html=1;strokeColor=none;align=left;verticalAlign=middle;whiteSpace=wrap;rounded=0;sketch=0;fontColor=#808080;fontStyle=2;fontSize=14;" parent="FpdOjQ_UmzUaRlVC9WjG-2" vertex="1">
          <mxGeometry x="684.22" y="575" width="100" height="20" as="geometry" />
        </mxCell>
        <mxCell id="FpdOjQ_UmzUaRlVC9WjG-61" value="" style="endArrow=none;dashed=1;html=1;dashPattern=1 3;strokeWidth=2;edgeStyle=orthogonalEdgeStyle;curved=1;fontColor=#808080;strokeColor=#808080;" parent="FpdOjQ_UmzUaRlVC9WjG-2" edge="1">
          <mxGeometry width="50" height="50" relative="1" as="geometry">
            <mxPoint x="646.22" y="737" as="sourcePoint" />
            <mxPoint x="650" y="480" as="targetPoint" />
            <Array as="points">
              <mxPoint x="676" y="737" />
              <mxPoint x="676" y="480" />
            </Array>
          </mxGeometry>
        </mxCell>
        <mxCell id="FpdOjQ_UmzUaRlVC9WjG-62" value="(d) Exploration" style="text;html=1;strokeColor=none;align=left;verticalAlign=middle;whiteSpace=wrap;rounded=0;sketch=0;fontColor=#808080;fontStyle=2;fontSize=14;" parent="FpdOjQ_UmzUaRlVC9WjG-2" vertex="1">
          <mxGeometry x="684.22" y="856" width="100" height="20" as="geometry" />
        </mxCell>
        <mxCell id="FpdOjQ_UmzUaRlVC9WjG-63" value="" style="endArrow=none;dashed=1;html=1;dashPattern=1 3;strokeWidth=2;edgeStyle=orthogonalEdgeStyle;curved=1;fontColor=#808080;strokeColor=#808080;" parent="FpdOjQ_UmzUaRlVC9WjG-2" edge="1">
          <mxGeometry width="50" height="50" relative="1" as="geometry">
            <mxPoint x="646.22" y="988.5" as="sourcePoint" />
            <mxPoint x="646.22" y="743.5" as="targetPoint" />
            <Array as="points">
              <mxPoint x="676.22" y="989" />
              <mxPoint x="676.22" y="743" />
            </Array>
          </mxGeometry>
        </mxCell>
        <mxCell id="WmJDCKHygcUtH_FTsqzf-0" value="" style="endArrow=classic;html=1;exitX=0.319;exitY=1;exitDx=0;exitDy=0;entryX=0.5;entryY=0;entryDx=0;entryDy=0;exitPerimeter=0;" parent="FpdOjQ_UmzUaRlVC9WjG-2" source="KOBFgpsfJj8ijsTa2FeM-257" target="FpdOjQ_UmzUaRlVC9WjG-33" edge="1">
          <mxGeometry width="50" height="50" relative="1" as="geometry">
            <mxPoint x="92.22" y="515" as="sourcePoint" />
            <mxPoint x="152.22" y="562" as="targetPoint" />
          </mxGeometry>
        </mxCell>
        <mxCell id="bhWjAG3H4gNq9ImHq5WX-6" value="" style="ellipse;whiteSpace=wrap;html=1;aspect=fixed;fontColor=#ffffff;fillColor=#1b9e77;strokeColor=#137055;" parent="FpdOjQ_UmzUaRlVC9WjG-2" vertex="1">
          <mxGeometry x="331.53000000000003" y="40" width="14" height="14" as="geometry" />
        </mxCell>
        <mxCell id="bhWjAG3H4gNq9ImHq5WX-8" value="" style="ellipse;whiteSpace=wrap;html=1;aspect=fixed;fontColor=#ffffff;fillColor=#1b9e77;strokeColor=#137055;" parent="FpdOjQ_UmzUaRlVC9WjG-2" vertex="1">
          <mxGeometry x="180.27" y="194" width="14" height="14" as="geometry" />
        </mxCell>
        <mxCell id="bhWjAG3H4gNq9ImHq5WX-11" value="" style="ellipse;whiteSpace=wrap;html=1;aspect=fixed;fontColor=#ffffff;fillColor=#1b9e77;strokeColor=#137055;" parent="FpdOjQ_UmzUaRlVC9WjG-2" vertex="1">
          <mxGeometry x="321.19000000000005" y="385" width="14" height="14" as="geometry" />
        </mxCell>
        <mxCell id="bhWjAG3H4gNq9ImHq5WX-13" value="" style="ellipse;whiteSpace=wrap;html=1;aspect=fixed;fontColor=#ffffff;fillColor=#1b9e77;strokeColor=#137055;" parent="FpdOjQ_UmzUaRlVC9WjG-2" vertex="1">
          <mxGeometry x="273.75" y="531.5" width="14" height="14" as="geometry" />
        </mxCell>
        <mxCell id="bhWjAG3H4gNq9ImHq5WX-16" value="" style="ellipse;whiteSpace=wrap;html=1;aspect=fixed;fontColor=#ffffff;fillColor=#1b9e77;strokeColor=#137055;" parent="FpdOjQ_UmzUaRlVC9WjG-2" vertex="1">
          <mxGeometry x="333.73" y="1024.25" width="14" height="14" as="geometry" />
        </mxCell>
        <mxCell id="KOBFgpsfJj8ijsTa2FeM-68" value="" style="ellipse;whiteSpace=wrap;html=1;aspect=fixed;fontColor=#ffffff;fillColor=#FFFFFF;" parent="FpdOjQ_UmzUaRlVC9WjG-2" vertex="1">
          <mxGeometry x="443.52000000000004" y="267" width="14" height="14" as="geometry" />
        </mxCell>
        <mxCell id="KOBFgpsfJj8ijsTa2FeM-79" value="" style="ellipse;whiteSpace=wrap;html=1;aspect=fixed;fontColor=#ffffff;fillColor=#FFFFFF;" parent="FpdOjQ_UmzUaRlVC9WjG-2" vertex="1">
          <mxGeometry x="304.19000000000005" y="385" width="14" height="14" as="geometry" />
        </mxCell>
        <mxCell id="KOBFgpsfJj8ijsTa2FeM-194" value="" style="ellipse;whiteSpace=wrap;html=1;aspect=fixed;fontColor=#ffffff;fillColor=#7570b3;strokeColor=#66619C;" parent="FpdOjQ_UmzUaRlVC9WjG-2" vertex="1">
          <mxGeometry x="443.52000000000004" y="267" width="14" height="14" as="geometry" />
        </mxCell>
        <mxCell id="KOBFgpsfJj8ijsTa2FeM-177" value="" style="ellipse;whiteSpace=wrap;html=1;aspect=fixed;fontColor=#000000;fillColor=#d95f02;strokeColor=#C25502;" parent="FpdOjQ_UmzUaRlVC9WjG-2" vertex="1">
          <mxGeometry x="280.90000000000003" y="40" width="14" height="14" as="geometry" />
        </mxCell>
        <mxCell id="KOBFgpsfJj8ijsTa2FeM-224" value="Lat/Lon" style="shape=document;whiteSpace=wrap;html=1;boundedLbl=1;sketch=0;fillColor=#E6E6E6;fontStyle=1;strokeWidth=2;" parent="FpdOjQ_UmzUaRlVC9WjG-2" vertex="1">
          <mxGeometry x="282.90000000000003" y="57" width="80" height="60" as="geometry" />
        </mxCell>
        <mxCell id="KOBFgpsfJj8ijsTa2FeM-226" value="" style="endArrow=classic;html=1;entryX=0;entryY=0.5;entryDx=0;entryDy=0;exitX=1;exitY=0.5;exitDx=0;exitDy=0;" parent="FpdOjQ_UmzUaRlVC9WjG-2" source="KOBFgpsfJj8ijsTa2FeM-227" target="FpdOjQ_UmzUaRlVC9WjG-4" edge="1">
          <mxGeometry width="50" height="50" relative="1" as="geometry">
            <mxPoint x="178.15" y="165.2897196261681" as="sourcePoint" />
            <mxPoint x="267.90000000000003" y="173" as="targetPoint" />
          </mxGeometry>
        </mxCell>
        <mxCell id="KOBFgpsfJj8ijsTa2FeM-227" value="&lt;div&gt;GeoID&lt;/div&gt;&lt;div style=&quot;font-size: 8px&quot;&gt;(e.g. ISO code)&lt;/div&gt;" style="shape=process;whiteSpace=wrap;html=1;backgroundOutline=1;sketch=0;gradientDirection=east;gradientColor=#E6E6E6;" parent="FpdOjQ_UmzUaRlVC9WjG-2" vertex="1">
          <mxGeometry x="163.9" y="151" width="80" height="40" as="geometry" />
        </mxCell>
        <mxCell id="KOBFgpsfJj8ijsTa2FeM-233" value="" style="endArrow=classic;html=1;entryX=0;entryY=0.5;entryDx=0;entryDy=0;" parent="FpdOjQ_UmzUaRlVC9WjG-2" target="KOBFgpsfJj8ijsTa2FeM-224" edge="1">
          <mxGeometry width="50" height="50" relative="1" as="geometry">
            <mxPoint x="239.9" y="87" as="sourcePoint" />
            <mxPoint x="425.90000000000003" y="151" as="targetPoint" />
          </mxGeometry>
        </mxCell>
        <mxCell id="KOBFgpsfJj8ijsTa2FeM-235" value="&lt;div&gt;No&lt;/div&gt;" style="text;html=1;align=center;verticalAlign=middle;resizable=0;points=[];autosize=1;strokeColor=none;" parent="FpdOjQ_UmzUaRlVC9WjG-2" vertex="1">
          <mxGeometry x="427.97" y="293" width="26" height="18" as="geometry" />
        </mxCell>
        <mxCell id="KOBFgpsfJj8ijsTa2FeM-240" value="&lt;div&gt;Geodata&lt;/div&gt;" style="shape=process;whiteSpace=wrap;html=1;backgroundOutline=1;sketch=0;gradientDirection=east;gradientColor=#E6E6E6;" parent="FpdOjQ_UmzUaRlVC9WjG-2" vertex="1">
          <mxGeometry x="163.9" y="68" width="80" height="40" as="geometry" />
        </mxCell>
        <mxCell id="KOBFgpsfJj8ijsTa2FeM-239" value="Flow data" style="shape=process;whiteSpace=wrap;html=1;backgroundOutline=1;sketch=0;gradientDirection=east;gradientColor=#E6E6E6;" parent="FpdOjQ_UmzUaRlVC9WjG-2" vertex="1">
          <mxGeometry x="128.65" y="239" width="80" height="40" as="geometry" />
        </mxCell>
        <mxCell id="KOBFgpsfJj8ijsTa2FeM-244" value="" style="endArrow=classic;html=1;entryX=0;entryY=0.5;entryDx=0;entryDy=0;" parent="FpdOjQ_UmzUaRlVC9WjG-2" target="KOBFgpsfJj8ijsTa2FeM-240" edge="1">
          <mxGeometry width="50" height="50" relative="1" as="geometry">
            <mxPoint x="124.34" y="141" as="sourcePoint" />
            <mxPoint x="373.34000000000003" y="269" as="targetPoint" />
          </mxGeometry>
        </mxCell>
        <mxCell id="KOBFgpsfJj8ijsTa2FeM-245" value="" style="endArrow=classic;html=1;entryX=0;entryY=0.5;entryDx=0;entryDy=0;exitX=1;exitY=0.5;exitDx=0;exitDy=0;" parent="FpdOjQ_UmzUaRlVC9WjG-2" source="FpdOjQ_UmzUaRlVC9WjG-4" target="FpdOjQ_UmzUaRlVC9WjG-21" edge="1">
          <mxGeometry width="50" height="50" relative="1" as="geometry">
            <mxPoint x="333.02000000000004" y="195" as="sourcePoint" />
            <mxPoint x="383.02000000000004" y="145" as="targetPoint" />
          </mxGeometry>
        </mxCell>
        <mxCell id="KOBFgpsfJj8ijsTa2FeM-246" value="" style="endArrow=classic;html=1;entryX=0;entryY=0.5;entryDx=0;entryDy=0;exitX=0.363;exitY=1;exitDx=0;exitDy=0;exitPerimeter=0;" parent="FpdOjQ_UmzUaRlVC9WjG-2" source="FpdOjQ_UmzUaRlVC9WjG-3" target="KOBFgpsfJj8ijsTa2FeM-247" edge="1">
          <mxGeometry width="50" height="50" relative="1" as="geometry">
            <mxPoint x="323.34000000000003" y="319" as="sourcePoint" />
            <mxPoint x="373.34000000000003" y="269" as="targetPoint" />
          </mxGeometry>
        </mxCell>
        <mxCell id="KOBFgpsfJj8ijsTa2FeM-247" value="Links data" style="shape=process;whiteSpace=wrap;html=1;backgroundOutline=1;sketch=0;gradientDirection=east;gradientColor=#E6E6E6;" parent="FpdOjQ_UmzUaRlVC9WjG-2" vertex="1">
          <mxGeometry x="128.65" y="239" width="80" height="40" as="geometry" />
        </mxCell>
        <mxCell id="KOBFgpsfJj8ijsTa2FeM-248" value="&lt;div&gt;Geodata&lt;/div&gt;" style="shape=process;whiteSpace=wrap;html=1;backgroundOutline=1;sketch=0;gradientDirection=east;gradientColor=#E6E6E6;" parent="FpdOjQ_UmzUaRlVC9WjG-2" vertex="1">
          <mxGeometry x="163.9" y="68" width="80" height="40" as="geometry" />
        </mxCell>
        <mxCell id="KOBFgpsfJj8ijsTa2FeM-249" value="" style="endArrow=classic;html=1;exitX=0.5;exitY=1;exitDx=0;exitDy=0;entryX=0.5;entryY=0;entryDx=0;entryDy=0;" parent="FpdOjQ_UmzUaRlVC9WjG-2" source="KOBFgpsfJj8ijsTa2FeM-248" target="KOBFgpsfJj8ijsTa2FeM-227" edge="1">
          <mxGeometry width="50" height="50" relative="1" as="geometry">
            <mxPoint x="185.08" y="158" as="sourcePoint" />
            <mxPoint x="235.08" y="108" as="targetPoint" />
          </mxGeometry>
        </mxCell>
        <mxCell id="KOBFgpsfJj8ijsTa2FeM-264" value="" style="ellipse;whiteSpace=wrap;html=1;aspect=fixed;fontColor=#000000;strokeColor=#C25502;fillColor=#d95f02;" parent="FpdOjQ_UmzUaRlVC9WjG-2" vertex="1">
          <mxGeometry x="412.03000000000003" y="175" width="14" height="14" as="geometry" />
        </mxCell>
        <mxCell id="KOBFgpsfJj8ijsTa2FeM-283" value="" style="endArrow=classic;html=1;entryX=0;entryY=0.5;entryDx=0;entryDy=0;" parent="FpdOjQ_UmzUaRlVC9WjG-2" source="KOBFgpsfJj8ijsTa2FeM-257" target="FpdOjQ_UmzUaRlVC9WjG-28" edge="1">
          <mxGeometry width="50" height="50" relative="1" as="geometry">
            <mxPoint x="392.22" y="440" as="sourcePoint" />
            <mxPoint x="442.22" y="390" as="targetPoint" />
          </mxGeometry>
        </mxCell>
        <mxCell id="KOBFgpsfJj8ijsTa2FeM-286" value="" style="ellipse;whiteSpace=wrap;html=1;aspect=fixed;strokeColor=#66619C;fontColor=#ffffff;fillColor=#7570b3;" parent="FpdOjQ_UmzUaRlVC9WjG-2" vertex="1">
          <mxGeometry x="304.32000000000005" y="385" width="14" height="14" as="geometry" />
        </mxCell>
        <mxCell id="KOBFgpsfJj8ijsTa2FeM-288" value="" style="endArrow=classic;html=1;exitX=1;exitY=1;exitDx=0;exitDy=0;entryX=0;entryY=0.5;entryDx=0;entryDy=0;entryPerimeter=0;" parent="FpdOjQ_UmzUaRlVC9WjG-2" source="FpdOjQ_UmzUaRlVC9WjG-33" target="FpdOjQ_UmzUaRlVC9WjG-36" edge="1">
          <mxGeometry width="50" height="50" relative="1" as="geometry">
            <mxPoint x="314.22" y="697" as="sourcePoint" />
            <mxPoint x="364.22" y="647" as="targetPoint" />
            <Array as="points">
              <mxPoint x="236.22" y="620" />
              <mxPoint x="366.22" y="620" />
            </Array>
          </mxGeometry>
        </mxCell>
        <mxCell id="KOBFgpsfJj8ijsTa2FeM-290" value="" style="ellipse;whiteSpace=wrap;html=1;aspect=fixed;fontColor=#ffffff;fillColor=#e7298a;strokeColor=#BA216F;" parent="FpdOjQ_UmzUaRlVC9WjG-2" vertex="1">
          <mxGeometry x="68" y="531.5" width="14" height="14" as="geometry" />
        </mxCell>
        <mxCell id="KOBFgpsfJj8ijsTa2FeM-299" value="Web basemap" style="shape=document;whiteSpace=wrap;html=1;boundedLbl=1;sketch=0;fillColor=#E6E6E6;fontStyle=1;strokeWidth=2;" parent="FpdOjQ_UmzUaRlVC9WjG-2" vertex="1">
          <mxGeometry x="64.33999999999997" y="706.5" width="90" height="60" as="geometry" />
        </mxCell>
        <mxCell id="KOBFgpsfJj8ijsTa2FeM-300" value="&lt;div&gt;Vector&lt;/div&gt;&lt;div&gt;geodata&lt;br&gt;&lt;/div&gt;" style="shape=document;whiteSpace=wrap;html=1;boundedLbl=1;sketch=0;fillColor=#E6E6E6;fontStyle=1;strokeWidth=2;" parent="FpdOjQ_UmzUaRlVC9WjG-2" vertex="1">
          <mxGeometry x="187.65999999999997" y="706.5" width="90" height="60" as="geometry" />
        </mxCell>
        <mxCell id="KOBFgpsfJj8ijsTa2FeM-304" value="" style="ellipse;whiteSpace=wrap;html=1;aspect=fixed;fontColor=#000000;strokeColor=#C25502;fillColor=#d95f02;" parent="FpdOjQ_UmzUaRlVC9WjG-2" vertex="1">
          <mxGeometry x="64.34" y="687.5" width="14" height="14" as="geometry" />
        </mxCell>
        <mxCell id="KOBFgpsfJj8ijsTa2FeM-305" value="" style="ellipse;whiteSpace=wrap;html=1;aspect=fixed;fontColor=#ffffff;fillColor=#FFFFFF;" parent="FpdOjQ_UmzUaRlVC9WjG-2" vertex="1">
          <mxGeometry x="97.47" y="687.5" width="14" height="14" as="geometry" />
        </mxCell>
        <mxCell id="KOBFgpsfJj8ijsTa2FeM-306" value="" style="ellipse;whiteSpace=wrap;html=1;aspect=fixed;fontColor=#ffffff;fillColor=#FFFFFF;" parent="FpdOjQ_UmzUaRlVC9WjG-2" vertex="1">
          <mxGeometry x="81.47" y="687.5" width="14" height="14" as="geometry" />
        </mxCell>
        <mxCell id="KOBFgpsfJj8ijsTa2FeM-307" value="" style="ellipse;whiteSpace=wrap;html=1;aspect=fixed;fontColor=#000000;strokeColor=#C25502;fillColor=#d95f02;" parent="FpdOjQ_UmzUaRlVC9WjG-2" vertex="1">
          <mxGeometry x="187.09" y="687.5" width="14" height="14" as="geometry" />
        </mxCell>
        <mxCell id="KOBFgpsfJj8ijsTa2FeM-308" value="" style="ellipse;whiteSpace=wrap;html=1;aspect=fixed;fontColor=#ffffff;fillColor=#FFFFFF;" parent="FpdOjQ_UmzUaRlVC9WjG-2" vertex="1">
          <mxGeometry x="220.22" y="687.5" width="14" height="14" as="geometry" />
        </mxCell>
        <mxCell id="KOBFgpsfJj8ijsTa2FeM-312" value="Layout" style="text;html=1;strokeColor=none;fillColor=none;align=center;verticalAlign=middle;whiteSpace=wrap;rounded=0;dashed=1;fontStyle=1" parent="FpdOjQ_UmzUaRlVC9WjG-2" vertex="1">
          <mxGeometry x="25.840000000000003" y="653" width="102" height="20" as="geometry" />
        </mxCell>
        <mxCell id="KOBFgpsfJj8ijsTa2FeM-315" value="" style="ellipse;whiteSpace=wrap;html=1;aspect=fixed;fontColor=#ffffff;fillColor=#e7298a;strokeColor=#BA216F;" parent="FpdOjQ_UmzUaRlVC9WjG-2" vertex="1">
          <mxGeometry x="97.47" y="687.5" width="14" height="14" as="geometry" />
        </mxCell>
        <mxCell id="KOBFgpsfJj8ijsTa2FeM-317" value="" style="ellipse;whiteSpace=wrap;html=1;aspect=fixed;fontColor=#ffffff;fillColor=#1b9e77;strokeColor=#137055;" parent="FpdOjQ_UmzUaRlVC9WjG-2" vertex="1">
          <mxGeometry x="220.22" y="687.5" width="14" height="14" as="geometry" />
        </mxCell>
        <mxCell id="KOBFgpsfJj8ijsTa2FeM-320" value="" style="ellipse;whiteSpace=wrap;html=1;aspect=fixed;strokeColor=#66619C;fontColor=#ffffff;fillColor=#7570b3;" parent="FpdOjQ_UmzUaRlVC9WjG-2" vertex="1">
          <mxGeometry x="81.22" y="687.5" width="14" height="14" as="geometry" />
        </mxCell>
        <mxCell id="KOBFgpsfJj8ijsTa2FeM-363" value="Tools" style="text;html=1;strokeColor=none;fillColor=none;align=left;verticalAlign=middle;whiteSpace=wrap;rounded=0;dashed=1;fontStyle=1" parent="FpdOjQ_UmzUaRlVC9WjG-2" vertex="1">
          <mxGeometry x="51.220000000000006" y="809" width="102" height="20" as="geometry" />
        </mxCell>
        <mxCell id="KOBFgpsfJj8ijsTa2FeM-352" value="" style="ellipse;whiteSpace=wrap;html=1;aspect=fixed;fontColor=#ffffff;fillColor=#e7298a;strokeColor=#BA216F;" parent="FpdOjQ_UmzUaRlVC9WjG-2" vertex="1">
          <mxGeometry x="80.91" y="1026" width="14" height="14" as="geometry" />
        </mxCell>
        <mxCell id="KOBFgpsfJj8ijsTa2FeM-353" value="" style="ellipse;whiteSpace=wrap;html=1;aspect=fixed;fontColor=#ffffff;fillColor=#1b9e77;strokeColor=#137055;" parent="FpdOjQ_UmzUaRlVC9WjG-2" vertex="1">
          <mxGeometry x="97.47" y="1026" width="14" height="14" as="geometry" />
        </mxCell>
        <mxCell id="KOBFgpsfJj8ijsTa2FeM-343" value="&lt;div&gt;Image&lt;br&gt;&lt;/div&gt;" style="shape=document;whiteSpace=wrap;html=1;boundedLbl=1;sketch=0;fillColor=#E6E6E6;fontStyle=1;strokeWidth=2;" parent="FpdOjQ_UmzUaRlVC9WjG-2" vertex="1">
          <mxGeometry x="64.34" y="1045" width="90" height="60" as="geometry" />
        </mxCell>
        <mxCell id="KOBFgpsfJj8ijsTa2FeM-344" value="Online hosting" style="shape=document;whiteSpace=wrap;html=1;boundedLbl=1;sketch=0;fillColor=#E6E6E6;fontStyle=1;strokeWidth=2;" parent="FpdOjQ_UmzUaRlVC9WjG-2" vertex="1">
          <mxGeometry x="187.65999999999994" y="1045" width="90" height="60" as="geometry" />
        </mxCell>
        <mxCell id="KOBFgpsfJj8ijsTa2FeM-345" value="" style="ellipse;whiteSpace=wrap;html=1;aspect=fixed;fontColor=#000000;strokeColor=#C25502;fillColor=#d95f02;" parent="FpdOjQ_UmzUaRlVC9WjG-2" vertex="1">
          <mxGeometry x="64.34" y="1026" width="14" height="14" as="geometry" />
        </mxCell>
        <mxCell id="KOBFgpsfJj8ijsTa2FeM-351" value="Export" style="text;html=1;strokeColor=none;fillColor=none;align=center;verticalAlign=middle;whiteSpace=wrap;rounded=0;dashed=1;fontStyle=1" parent="FpdOjQ_UmzUaRlVC9WjG-2" vertex="1">
          <mxGeometry x="24.000000000000004" y="992" width="102" height="20" as="geometry" />
        </mxCell>
        <mxCell id="KOBFgpsfJj8ijsTa2FeM-369" value="" style="curved=1;endArrow=classic;html=1;exitX=1;exitY=0.5;exitDx=0;exitDy=0;exitPerimeter=0;entryX=0.533;entryY=0;entryDx=0;entryDy=0;entryPerimeter=0;startArrow=classic;startFill=1;strokeWidth=2;" parent="FpdOjQ_UmzUaRlVC9WjG-2" source="FpdOjQ_UmzUaRlVC9WjG-36" target="KOBFgpsfJj8ijsTa2FeM-362" edge="1">
          <mxGeometry width="50" height="50" relative="1" as="geometry">
            <mxPoint x="586.22" y="850" as="sourcePoint" />
            <mxPoint x="286.22" y="800" as="targetPoint" />
            <Array as="points">
              <mxPoint x="566.22" y="710" />
            </Array>
          </mxGeometry>
        </mxCell>
        <mxCell id="KOBFgpsfJj8ijsTa2FeM-370" value="" style="endArrow=classic;html=1;exitX=0.353;exitY=1.005;exitDx=0;exitDy=0;exitPerimeter=0;" parent="FpdOjQ_UmzUaRlVC9WjG-2" source="KOBFgpsfJj8ijsTa2FeM-362" edge="1">
          <mxGeometry width="50" height="50" relative="1" as="geometry">
            <mxPoint x="586.22" y="920" as="sourcePoint" />
            <mxPoint x="261.22" y="990" as="targetPoint" />
          </mxGeometry>
        </mxCell>
        <mxCell id="KOBFgpsfJj8ijsTa2FeM-383" value="Brush" style="rhombus;whiteSpace=wrap;html=1;sketch=0;" parent="FpdOjQ_UmzUaRlVC9WjG-2" vertex="1">
          <mxGeometry x="536.22" y="848" width="110" height="80" as="geometry" />
        </mxCell>
        <mxCell id="KOBFgpsfJj8ijsTa2FeM-393" value="" style="ellipse;whiteSpace=wrap;html=1;aspect=fixed;fontColor=#ffffff;fillColor=#535C6C;strokeColor=#353B45;" parent="FpdOjQ_UmzUaRlVC9WjG-2" vertex="1">
          <mxGeometry x="316.67" y="1024.25" width="14" height="14" as="geometry" />
        </mxCell>
        <mxCell id="FpdOjQ_UmzUaRlVC9WjG-47" value="Labels&lt;br&gt;Captions&lt;br&gt;Pop-ups" style="rhombus;whiteSpace=wrap;html=1;sketch=0;" parent="FpdOjQ_UmzUaRlVC9WjG-2" vertex="1">
          <mxGeometry x="175" y="848" width="110" height="80" as="geometry" />
        </mxCell>
        <mxCell id="KOBFgpsfJj8ijsTa2FeM-373" value="" style="ellipse;whiteSpace=wrap;html=1;aspect=fixed;fontColor=#ffffff;fillColor=#e7298a;strokeColor=#BA216F;" parent="FpdOjQ_UmzUaRlVC9WjG-2" vertex="1">
          <mxGeometry x="177.02000000000004" y="831" width="14" height="14" as="geometry" />
        </mxCell>
        <mxCell id="KOBFgpsfJj8ijsTa2FeM-385" value="" style="ellipse;whiteSpace=wrap;html=1;aspect=fixed;strokeColor=#66619C;fontColor=#ffffff;fillColor=#7570b3;" parent="FpdOjQ_UmzUaRlVC9WjG-2" vertex="1">
          <mxGeometry x="193.96000000000004" y="831" width="14" height="14" as="geometry" />
        </mxCell>
        <mxCell id="KOBFgpsfJj8ijsTa2FeM-18" value="" style="ellipse;whiteSpace=wrap;html=1;aspect=fixed;fontColor=#ffffff;fillColor=#1b9e77;strokeColor=#137055;" parent="FpdOjQ_UmzUaRlVC9WjG-2" vertex="1">
          <mxGeometry x="210.02000000000004" y="831" width="14" height="14" as="geometry" />
        </mxCell>
        <mxCell id="KOBFgpsfJj8ijsTa2FeM-190" value="" style="ellipse;whiteSpace=wrap;html=1;aspect=fixed;fontColor=#ffffff;strokeColor=#473F2D;fillColor=#fef1dd;" parent="FpdOjQ_UmzUaRlVC9WjG-2" vertex="1">
          <mxGeometry x="54.339999999999954" y="831" width="14" height="14" as="geometry" />
        </mxCell>
        <mxCell id="bhWjAG3H4gNq9ImHq5WX-14" value="" style="ellipse;whiteSpace=wrap;html=1;aspect=fixed;fontColor=#ffffff;fillColor=#1b9e77;strokeColor=#137055;" parent="FpdOjQ_UmzUaRlVC9WjG-2" vertex="1">
          <mxGeometry x="105.97000000000006" y="831" width="14" height="14" as="geometry" />
        </mxCell>
        <mxCell id="KOBFgpsfJj8ijsTa2FeM-296" value="" style="ellipse;whiteSpace=wrap;html=1;aspect=fixed;strokeColor=#66619C;fontColor=#ffffff;fillColor=#7570b3;" parent="FpdOjQ_UmzUaRlVC9WjG-2" vertex="1">
          <mxGeometry x="71.71000000000001" y="831" width="14" height="14" as="geometry" />
        </mxCell>
        <mxCell id="KOBFgpsfJj8ijsTa2FeM-321" value="" style="ellipse;whiteSpace=wrap;html=1;aspect=fixed;fontColor=#ffffff;fillColor=#e7298a;strokeColor=#BA216F;" parent="FpdOjQ_UmzUaRlVC9WjG-2" vertex="1">
          <mxGeometry x="88.71000000000001" y="831" width="14" height="14" as="geometry" />
        </mxCell>
        <mxCell id="FpdOjQ_UmzUaRlVC9WjG-41" value="Cluster" style="rhombus;whiteSpace=wrap;html=1;sketch=0;" parent="FpdOjQ_UmzUaRlVC9WjG-2" vertex="1">
          <mxGeometry x="536.22" y="848" width="110" height="80" as="geometry" />
        </mxCell>
        <mxCell id="KOBFgpsfJj8ijsTa2FeM-292" value="" style="ellipse;whiteSpace=wrap;html=1;aspect=fixed;strokeColor=#66619C;fontColor=#ffffff;fillColor=#7570b3;" parent="FpdOjQ_UmzUaRlVC9WjG-2" vertex="1">
          <mxGeometry x="551.22" y="831" width="14" height="14" as="geometry" />
        </mxCell>
        <mxCell id="KOBFgpsfJj8ijsTa2FeM-382" value="" style="ellipse;whiteSpace=wrap;html=1;aspect=fixed;fontColor=#ffffff;fillColor=#e7298a;strokeColor=#BA216F;" parent="FpdOjQ_UmzUaRlVC9WjG-2" vertex="1">
          <mxGeometry x="432.15000000000003" y="831" width="14" height="14" as="geometry" />
        </mxCell>
        <mxCell id="KOBFgpsfJj8ijsTa2FeM-379" value="Brush" style="rhombus;whiteSpace=wrap;html=1;sketch=0;" parent="FpdOjQ_UmzUaRlVC9WjG-2" vertex="1">
          <mxGeometry x="416" y="848" width="110" height="80" as="geometry" />
        </mxCell>
        <mxCell id="KOBFgpsfJj8ijsTa2FeM-375" value="" style="ellipse;whiteSpace=wrap;html=1;aspect=fixed;fontColor=#000000;strokeColor=#C25502;fillColor=#d95f02;" parent="FpdOjQ_UmzUaRlVC9WjG-2" vertex="1">
          <mxGeometry x="304.94" y="831" width="14" height="14" as="geometry" />
        </mxCell>
        <mxCell id="KOBFgpsfJj8ijsTa2FeM-377" value="" style="ellipse;whiteSpace=wrap;html=1;aspect=fixed;fontColor=#ffffff;fillColor=#e7298a;strokeColor=#BA216F;" parent="FpdOjQ_UmzUaRlVC9WjG-2" vertex="1">
          <mxGeometry x="321.19" y="831" width="14" height="14" as="geometry" />
        </mxCell>
        <mxCell id="KOBFgpsfJj8ijsTa2FeM-384" value="Graph query" style="rhombus;whiteSpace=wrap;html=1;sketch=0;" parent="FpdOjQ_UmzUaRlVC9WjG-2" vertex="1">
          <mxGeometry x="295" y="848" width="110" height="80" as="geometry" />
        </mxCell>
        <mxCell id="KOBFgpsfJj8ijsTa2FeM-406" value="" style="ellipse;whiteSpace=wrap;html=1;aspect=fixed;fontColor=#000000;strokeColor=#C25502;fillColor=#d95f02;" parent="FpdOjQ_UmzUaRlVC9WjG-2" vertex="1">
          <mxGeometry x="54.339999999999954" y="831" width="14" height="14" as="geometry" />
        </mxCell>
        <mxCell id="KOBFgpsfJj8ijsTa2FeM-407" value="" style="group" parent="FpdOjQ_UmzUaRlVC9WjG-2" vertex="1" connectable="0">
          <mxGeometry x="600" y="1020" width="60.879999999999995" height="91" as="geometry" />
        </mxCell>
        <mxCell id="KOBFgpsfJj8ijsTa2FeM-207" value="" style="ellipse;whiteSpace=wrap;html=1;aspect=fixed;fontColor=#ffffff;fillColor=#F5DC93;strokeColor=#473F2D;" parent="KOBFgpsfJj8ijsTa2FeM-407" vertex="1">
          <mxGeometry y="3" width="14" height="14" as="geometry" />
        </mxCell>
        <mxCell id="KOBFgpsfJj8ijsTa2FeM-209" value="" style="ellipse;whiteSpace=wrap;html=1;aspect=fixed;fontColor=#ffffff;fillColor=#009900;strokeColor=#006900;" parent="KOBFgpsfJj8ijsTa2FeM-407" vertex="1">
          <mxGeometry y="74" width="14" height="14" as="geometry" />
        </mxCell>
        <mxCell id="KOBFgpsfJj8ijsTa2FeM-210" value="" style="ellipse;whiteSpace=wrap;html=1;aspect=fixed;fontColor=#ffffff;fillColor=#535c6c;strokeColor=#1fbad6;" parent="KOBFgpsfJj8ijsTa2FeM-407" vertex="1">
          <mxGeometry y="51" width="14" height="14" as="geometry" />
        </mxCell>
        <mxCell id="KOBFgpsfJj8ijsTa2FeM-212" value="Flowmap.Blue" style="text;html=1;strokeColor=none;fillColor=none;align=left;verticalAlign=middle;whiteSpace=wrap;rounded=0;fontStyle=1" parent="KOBFgpsfJj8ijsTa2FeM-407" vertex="1">
          <mxGeometry x="20.88" y="20" width="40" height="24" as="geometry" />
        </mxCell>
        <mxCell id="KOBFgpsfJj8ijsTa2FeM-214" value="Kepler" style="text;html=1;strokeColor=none;fillColor=none;align=left;verticalAlign=middle;whiteSpace=wrap;rounded=0;fontStyle=1" parent="KOBFgpsfJj8ijsTa2FeM-407" vertex="1">
          <mxGeometry x="20.879999999999995" y="48" width="40" height="20" as="geometry" />
        </mxCell>
        <mxCell id="KOBFgpsfJj8ijsTa2FeM-215" value="Magrit" style="text;html=1;strokeColor=none;fillColor=none;align=left;verticalAlign=middle;whiteSpace=wrap;rounded=0;fontStyle=1" parent="KOBFgpsfJj8ijsTa2FeM-407" vertex="1">
          <mxGeometry x="20.879999999999995" y="71" width="40" height="20" as="geometry" />
        </mxCell>
        <mxCell id="KOBFgpsfJj8ijsTa2FeM-217" value="" style="ellipse;whiteSpace=wrap;html=1;aspect=fixed;fontColor=#ffffff;fillColor=#F5DC93;strokeColor=#473F2D;" parent="KOBFgpsfJj8ijsTa2FeM-407" vertex="1">
          <mxGeometry y="3" width="14" height="14" as="geometry" />
        </mxCell>
        <mxCell id="KOBFgpsfJj8ijsTa2FeM-218" value="" style="ellipse;whiteSpace=wrap;html=1;aspect=fixed;fontColor=#000000;strokeColor=#C25502;fillColor=#d95f02;" parent="KOBFgpsfJj8ijsTa2FeM-407" vertex="1">
          <mxGeometry y="3" width="14" height="14" as="geometry" />
        </mxCell>
        <mxCell id="KOBFgpsfJj8ijsTa2FeM-219" value="" style="ellipse;whiteSpace=wrap;html=1;aspect=fixed;fontColor=#ffffff;fillColor=#a1a815;strokeColor=#C5EB2D;" parent="KOBFgpsfJj8ijsTa2FeM-407" vertex="1">
          <mxGeometry y="74" width="14" height="14" as="geometry" />
        </mxCell>
        <mxCell id="KOBFgpsfJj8ijsTa2FeM-220" value="" style="ellipse;whiteSpace=wrap;html=1;aspect=fixed;fontColor=#ffffff;fillColor=#1b9e77;strokeColor=#137055;" parent="KOBFgpsfJj8ijsTa2FeM-407" vertex="1">
          <mxGeometry y="74" width="14" height="14" as="geometry" />
        </mxCell>
        <mxCell id="KOBFgpsfJj8ijsTa2FeM-221" value="Arabesque" style="text;html=1;strokeColor=none;fillColor=none;align=left;verticalAlign=middle;whiteSpace=wrap;rounded=0;fontStyle=1" parent="KOBFgpsfJj8ijsTa2FeM-407" vertex="1">
          <mxGeometry x="20.879999999999995" width="40" height="20" as="geometry" />
        </mxCell>
        <mxCell id="KOBFgpsfJj8ijsTa2FeM-223" value="" style="ellipse;whiteSpace=wrap;html=1;aspect=fixed;fontColor=#ffffff;fillColor=#e7298a;strokeColor=#BA216F;" parent="KOBFgpsfJj8ijsTa2FeM-407" vertex="1">
          <mxGeometry y="51" width="14" height="14" as="geometry" />
        </mxCell>
        <mxCell id="KOBFgpsfJj8ijsTa2FeM-293" value="" style="ellipse;whiteSpace=wrap;html=1;aspect=fixed;strokeColor=#66619C;fontColor=#ffffff;fillColor=#7570b3;" parent="KOBFgpsfJj8ijsTa2FeM-407" vertex="1">
          <mxGeometry y="27" width="14" height="14" as="geometry" />
        </mxCell>
        <mxCell id="KOBFgpsfJj8ijsTa2FeM-408" value="" style="ellipse;whiteSpace=wrap;html=1;aspect=fixed;fontColor=#ffffff;fillColor=#1b9e77;strokeColor=#137055;" parent="FpdOjQ_UmzUaRlVC9WjG-2" vertex="1">
          <mxGeometry x="464" y="385" width="14" height="14" as="geometry" />
        </mxCell>
        <mxCell id="Qh5Khim3E8hIhL0t0O62-0" value="(e) Export" style="text;html=1;strokeColor=none;align=left;verticalAlign=middle;whiteSpace=wrap;rounded=0;sketch=0;fontColor=#808080;fontStyle=2;fontSize=14;" parent="FpdOjQ_UmzUaRlVC9WjG-2" vertex="1">
          <mxGeometry x="434.15000000000003" y="1026" width="100" height="20" as="geometry" />
        </mxCell>
        <mxCell id="Qh5Khim3E8hIhL0t0O62-25" value="" style="ellipse;whiteSpace=wrap;html=1;aspect=fixed;fontColor=#ffffff;fillColor=#e7298a;strokeColor=#BA216F;" parent="FpdOjQ_UmzUaRlVC9WjG-2" vertex="1">
          <mxGeometry x="204.22" y="1024.25" width="14" height="14" as="geometry" />
        </mxCell>
        <mxCell id="Qh5Khim3E8hIhL0t0O62-26" value="" style="ellipse;whiteSpace=wrap;html=1;aspect=fixed;fontColor=#ffffff;fillColor=#e7298a;strokeColor=#BA216F;" parent="FpdOjQ_UmzUaRlVC9WjG-2" vertex="1">
          <mxGeometry x="316.67" y="1024.25" width="14" height="14" as="geometry" />
        </mxCell>
      </root>
    </mxGraphModel>
  </diagram>
</mxfile>
